<?xml version="1.0" encoding="UTF-8"?>
<!DOCTYPE svg PUBLIC "-//W3C//DTD SVG 1.1//EN" "http://www.w3.org/Graphics/SVG/1.1/DTD/svg11.dtd">
<!-- Creator: CorelDRAW -->
<svg xmlns="http://www.w3.org/2000/svg" xml:space="preserve" width="8.89mm" height="8.89mm" version="1.1" shape-rendering="geometricPrecision" text-rendering="geometricPrecision" image-rendering="optimizeQuality" fill-rule="evenodd" clip-rule="evenodd"
viewBox="0 0 878.54 878.54"
 xmlns:xlink="http://www.w3.org/1999/xlink"
 xmlns:xodm="http://www.corel.com/coreldraw/odm/2003">
 <g id="Слой_x0020_1">
  <metadata id="CorelCorpID_0Corel-Layer"/>
  <path fill="white" fill-rule="nonzero" d="M439.27 0c-242.61,0 -439.27,196.67 -439.27,439.27 0,242.61 196.66,439.27 439.27,439.27 242.6,0 439.27,-196.66 439.27,-439.27 0,-242.6 -196.67,-439.27 -439.27,-439.27zm104.05 303.56l-66.02 0c-7.83,0 -16.52,10.3 -16.52,23.97l0 47.68 82.6 0 -12.49 67.99 -70.11 0 0 204.13 -77.92 0 0 -204.13 -70.7 0 0 -67.99 70.7 0 0 -39.99c0,-57.38 39.81,-104 94.45,-104l66.02 0 0 72.34z"/>
 </g>
</svg>
