<?xml version="1.0" encoding="UTF-8"?>
<!DOCTYPE svg PUBLIC "-//W3C//DTD SVG 1.1//EN" "http://www.w3.org/Graphics/SVG/1.1/DTD/svg11.dtd">
<!-- Creator: CorelDRAW -->
<svg xmlns="http://www.w3.org/2000/svg" xml:space="preserve" width="8.89mm" height="8.89mm" version="1.1" shape-rendering="geometricPrecision" text-rendering="geometricPrecision" image-rendering="optimizeQuality" fill-rule="evenodd" clip-rule="evenodd"
viewBox="0 0 889 889"
 xmlns:xlink="http://www.w3.org/1999/xlink"
 xmlns:xodm="http://www.corel.com/coreldraw/odm/2003">
 <g id="Слой_x0020_1">
  <metadata id="CorelCorpID_0Corel-Layer"/>
  <path fill="white" fill-rule="nonzero" d="M583.41 444.5c0,36.84 -14.64,72.17 -40.69,98.22 -26.05,26.05 -61.38,40.69 -98.22,40.69 -36.84,0 -72.17,-14.64 -98.22,-40.69 -26.05,-26.05 -40.69,-61.38 -40.69,-98.22 0,-7.92 0.84,-15.65 2.27,-23.15l-48.57 0 0 185.07c0,12.87 10.42,23.29 23.29,23.29l323.88 0c6.17,-0.01 12.09,-2.47 16.44,-6.84 4.36,-4.36 6.81,-10.28 6.81,-16.45l0 -185.07 -48.57 0c1.43,7.5 2.27,15.23 2.27,23.15zm-138.91 92.61c12.16,-0.01 24.21,-2.41 35.44,-7.07 11.24,-4.65 21.45,-11.48 30.05,-20.08 8.6,-8.6 15.42,-18.82 20.07,-30.06 4.65,-11.24 7.05,-23.28 7.04,-35.45 0,-12.16 -2.4,-24.2 -7.06,-35.44 -4.65,-11.24 -11.48,-21.45 -20.08,-30.04 -8.61,-8.6 -18.82,-15.42 -30.06,-20.08 -11.24,-4.65 -23.28,-7.04 -35.45,-7.04 -24.56,0.01 -48.12,9.77 -65.49,27.15 -17.36,17.37 -27.12,40.94 -27.11,65.5 0,24.57 9.77,48.12 27.14,65.49 17.38,17.37 40.94,27.12 65.51,27.12zm111.13 -189.84l55.51 0c3.69,0 7.23,-1.46 9.84,-4.07 2.61,-2.6 4.08,-6.13 4.1,-9.82l0 -55.52c0,-3.7 -1.47,-7.24 -4.08,-9.86 -2.62,-2.61 -6.16,-4.08 -9.86,-4.08l-55.51 0c-3.7,0 -7.25,1.47 -9.86,4.08 -2.61,2.62 -4.08,6.16 -4.08,9.86l0 55.52c0.04,7.64 6.29,13.89 13.94,13.89zm-111.13 -347.27c-117.89,0 -230.95,46.83 -314.31,130.19 -83.36,83.36 -130.19,196.42 -130.19,314.31 0,117.89 46.83,230.95 130.19,314.31 83.36,83.36 196.42,130.19 314.31,130.19 58.37,0 116.17,-11.5 170.1,-33.84 53.93,-22.33 102.93,-55.07 144.21,-96.35 41.27,-41.28 74.02,-90.28 96.35,-144.2 22.34,-53.93 33.84,-111.74 33.84,-170.11 0,-58.37 -11.5,-116.17 -33.84,-170.1 -22.33,-53.93 -55.08,-102.93 -96.35,-144.21 -41.28,-41.27 -90.28,-74.01 -144.21,-96.35 -53.93,-22.34 -111.73,-33.84 -170.1,-33.84zm231.51 624.57c0,28.29 -23.15,51.44 -51.44,51.44l-360.14 0c-28.29,0 -51.44,-23.15 -51.44,-51.44l0 -360.14c0,-28.29 23.15,-51.44 51.44,-51.44l360.14 0c28.29,0 51.44,23.15 51.44,51.44l0 360.14z"/>
 </g>
</svg>
