<?xml version="1.0" encoding="UTF-8"?>
<!DOCTYPE svg PUBLIC "-//W3C//DTD SVG 1.1//EN" "http://www.w3.org/Graphics/SVG/1.1/DTD/svg11.dtd">
<!-- Creator: CorelDRAW -->
<svg xmlns="http://www.w3.org/2000/svg" xml:space="preserve" width="8.89mm" height="8.89mm" version="1.1" shape-rendering="geometricPrecision" text-rendering="geometricPrecision" image-rendering="optimizeQuality" fill-rule="evenodd" clip-rule="evenodd"
viewBox="0 0 883.73 883.73"
 xmlns:xlink="http://www.w3.org/1999/xlink"
 xmlns:xodm="http://www.corel.com/coreldraw/odm/2003">
 <g id="Слой_x0020_1">
  <metadata id="CorelCorpID_0Corel-Layer"/>
  <path fill="white" fill-rule="nonzero" d="M441.87 0c-244.04,0 -441.87,197.83 -441.87,441.87 0,244.05 197.83,441.87 441.87,441.87 244.05,0 441.87,-197.82 441.87,-441.87 0,-244.04 -197.82,-441.87 -441.87,-441.87zm179.74 361.96c0.19,3.78 0.24,7.55 0.24,11.23 0,115.07 -87.51,247.67 -247.58,247.67 -47.31,0.08 -93.62,-13.51 -133.39,-39.13 6.77,0.84 13.72,1.15 20.77,1.15 40.78,0 78.28,-13.86 108.07,-37.24 -18.14,-0.35 -35.73,-6.36 -50.3,-17.19 -14.57,-10.83 -25.4,-25.93 -30.99,-43.2 13.03,2.49 26.46,1.97 39.27,-1.51 -19.7,-3.99 -37.42,-14.66 -50.14,-30.21 -12.72,-15.56 -19.68,-35.03 -19.68,-55.13l0 -1.05c11.73,6.49 25.17,10.45 39.44,10.9 -18.47,-12.29 -31.54,-31.17 -36.54,-52.79 -5.01,-21.61 -1.57,-44.32 9.61,-63.48 21.86,26.88 49.13,48.87 80.02,64.55 30.91,15.68 64.74,24.69 99.35,26.45 -4.39,-18.67 -2.51,-38.27 5.39,-55.76 7.89,-17.49 21.33,-31.88 38.25,-40.94 16.91,-9.05 36.34,-12.27 55.27,-9.14 18.93,3.12 36.29,12.42 49.4,26.43 19.47,-3.86 38.15,-10.99 55.23,-21.12 -6.49,20.17 -20.08,37.29 -38.25,48.19 17.26,-2.08 34.11,-6.72 49.99,-13.77 -11.67,17.49 -26.37,32.74 -43.41,45.06z"/>
 </g>
</svg>
